<?xml version="1.0" encoding="utf-8"?>
<!-- Generator: Adobe Illustrator 27.5.0, SVG Export Plug-In . SVG Version: 6.00 Build 0)  -->
<svg version="1.1" id="Layer_1" xmlns="http://www.w3.org/2000/svg" xmlns:xlink="http://www.w3.org/1999/xlink" x="0px" y="0px"
	 viewBox="0 0 4975 4975" style="enable-background:new 0 0 4975 4975;" xml:space="preserve">
<radialGradient id="SVGID_1_" cx="2888.0044" cy="2347.9795" r="605.9434" gradientTransform="matrix(6.6166 0 0 5.9093 -16621.2695 -11387.415)" gradientUnits="userSpaceOnUse">
	<stop  offset="0.6061" style="stop-color:#FFFFFF"/>
	<stop  offset="0.6831" style="stop-color:#FAFAFB"/>
	<stop  offset="0.7713" style="stop-color:#ECEDED"/>
	<stop  offset="0.8651" style="stop-color:#D5D6D8"/>
	<stop  offset="0.9622" style="stop-color:#B6B7BA"/>
	<stop  offset="1" style="stop-color:#A7A9AC"/>
</radialGradient>
<rect style="fill:url(#SVGID_1_);" width="4975" height="4975"/>
<path d="M3374.936,2385.89c-2.338,4.134-4.638,8.061-6.977,12.018c-2.334,3.944-4.686,7.861-7.053,11.762
	c-4.736,7.799-9.537,15.536-14.393,23.23c-9.718,15.384-19.661,30.596-29.802,45.667c-20.287,30.137-41.368,59.712-63.208,88.727
	c-43.692,58.007-90.393,113.819-140.537,166.562c-50.154,52.701-103.782,102.374-161.674,147.031
	c-28.943,22.31-58.961,43.339-90.131,62.665c-31.167,19.319-63.492,36.938-96.975,52.282c-8.37,3.837-16.811,7.529-25.321,11.069
	l-6.396,2.624l-3.207,1.292l-1.607,0.642l-0.401,0.16c-0.28,0.111,0.995-0.425,0.273-0.115l-0.771,0.34
	c-4.237,1.86-8.442,3.663-12.676,5.443c-16.913,7.103-33.941,13.698-51.075,19.949c-34.264,12.482-68.938,23.591-103.973,33.482
	c-35.035,9.875-70.435,18.507-106.188,25.666c-35.751,7.147-71.863,12.834-108.301,16.498c-18.217,1.83-36.517,3.147-54.881,3.832
	l-13.634,0.432l-13.594,0.342c-9.07,0.196-18.155,0.329-27.259,0.373c-18.205,0.086-36.482-0.18-54.832-1.071
	c-18.346-0.902-36.772-2.428-55.208-5.017c-18.429-2.596-36.887-6.257-55.088-11.604c-18.186-5.342-36.128-12.419-53.074-21.748
	c-16.944-9.303-32.815-20.907-46.734-34.476c-13.95-13.546-25.906-28.971-35.853-45.336l-0.136-0.224
	c-0.237-0.391-0.453-0.801-0.64-1.203l-0.426-0.926l-0.351-0.786l-0.66-1.521c-0.427-1.002-0.837-1.991-1.236-2.979
	c-0.799-1.976-1.555-3.941-2.282-5.912c-1.453-3.94-2.788-7.896-4.02-11.887c-2.461-7.976-4.516-16.076-6.121-24.314
	c-3.19-16.459-4.64-33.535-3.158-50.854c0.747-8.648,2.25-17.337,4.686-25.872c2.429-8.529,5.805-16.896,10.15-24.772
	c4.337-7.878,9.643-15.245,15.684-21.852c6.04-6.612,12.797-12.458,19.956-17.521c3.583-2.528,7.263-4.874,11.017-7.037
	c1.877-1.082,3.772-2.119,5.68-3.114c0.955-0.499,1.913-0.983,2.875-1.463l1.445-0.705l1.004-0.477l0.667-0.3
	c7.781-3.496,15.756-6.462,24.08-8.783c8.305-2.314,16.899-3.948,25.65-4.701c8.747-0.754,17.646-0.617,26.438,0.517
	c8.792,1.127,17.463,3.249,25.754,6.255c8.295,3.005,16.205,6.882,23.61,11.415c14.832,9.08,27.609,20.66,38.543,33.42
	c5.471,6.39,10.495,13.096,15.102,20.062c2.304,3.482,4.502,7.032,6.595,10.647l1.549,2.724l1.474,2.639
	c1.051,1.912,2.055,3.849,3.006,5.807c7.639,15.685,11.964,32.597,13.718,49.419c1.759,16.855,1.024,33.674-1.409,50.038
	c-2.446,16.375-6.597,32.327-11.989,47.743c-10.827,30.835-26.513,59.548-45.455,85.716c-18.976,26.159-41.317,49.792-66.319,70.198
	c-24.998,20.398-52.714,37.542-82.349,50.467c-29.616,12.939-61.155,21.588-93.264,25.353c-32.108,3.807-64.713,2.716-96.419-2.752
	c-7.93-1.36-15.807-2.99-23.616-4.87c-3.904-0.938-7.792-1.942-11.661-3.006c-1.935-0.531-3.865-1.075-5.79-1.639l-2.884-0.854
	l-1.439-0.436l-0.719-0.219l-0.36-0.11c-0.249-0.074,0.885,0.241,0.237,0.067l-1.65-0.428l-1.528-0.421l-2.993-0.873
	c-1.978-0.596-3.932-1.22-5.873-1.868c-3.882-1.298-7.712-2.695-11.505-4.184c-7.583-2.979-15.015-6.324-22.275-10.055
	c-14.505-7.468-28.374-16.479-40.839-27.456c-12.438-10.952-23.441-23.995-31.48-38.92c-4.022-7.443-7.291-15.324-9.696-23.449
	c-2.41-8.127-3.959-16.488-4.685-24.87c-0.363-4.192-0.528-8.388-0.502-12.571l0.017-1.565l0.006-0.394
	c0.051-1.198,0.03-0.543,0.048-0.903l0.057-0.73c0.086-1.067,0.179-2.115,0.286-3.146c0.209-2.078,0.466-4.151,0.768-6.222
	c1.209-8.283,3.18-16.515,6.019-24.49c2.835-7.975,6.548-15.687,11.123-22.877c4.57-7.193,10.004-13.854,16.142-19.77
	c12.276-11.855,27.333-20.623,43.428-25.751c16.102-5.135,33.281-6.767,50.1-4.483c8.402,1.149,16.717,3.297,24.655,6.55
	c7.934,3.25,15.495,7.625,22.231,13.134l-0.716-0.519c6.952,4.554,13.088,10.14,18.362,16.32
	c5.276,6.188,9.708,12.973,13.368,20.079c7.314,14.236,11.587,29.714,13.302,45.337c1.706,15.636,0.833,31.466-2.352,46.767
	c-3.179,15.305-8.682,30.076-16.105,43.746c-7.421,13.678-16.751,26.24-27.423,37.407c-10.67,11.182-22.668,20.975-35.448,29.429
	c-12.789,8.455-26.36,15.581-40.344,21.57c-13.991,5.987-28.396,10.848-43.002,14.785c-7.303,1.971-14.659,3.707-22.048,5.24
	c-3.695,0.766-7.398,1.482-11.108,2.147l-0.348,0.063l-0.174,0.032l-0.496,0.078l-0.723,0.089l-1.421,0.17l-2.82,0.313l-5.62,0.564
	c-14.965,1.407-29.928,2.244-44.919,2.612c-14.988,0.354-29.994,0.218-44.991-0.522c-14.996-0.74-29.985-2.081-44.898-4.24
	c-14.908-2.167-29.75-5.146-44.326-9.364c-14.558-4.229-28.892-9.688-42.349-17.138c-6.72-3.729-13.208-7.963-19.273-12.803
	c-6.064-4.834-11.705-10.285-16.657-16.346c-4.956-6.055-9.208-12.727-12.551-19.824c-3.353-7.096-5.791-14.599-7.352-22.232
	l-0.01-0.053c-0.021-0.101-0.038-0.209-0.051-0.311c-1.415-11.266-0.81-22.804,2.173-33.859c1.494-5.517,3.602-10.902,6.353-15.965
	c2.746-5.062,6.142-9.794,10.094-14c3.946-4.212,8.44-7.889,13.273-10.961c4.833-3.079,9.999-5.557,15.31-7.501
	c5.319-1.948,10.76-3.36,16.282-4.377c5.584-1.011,11.321-1.423,17.051-1.097c5.727,0.326,11.442,1.402,16.895,3.277
	c5.455,1.867,10.635,4.519,15.337,7.814c9.434,6.594,16.853,15.665,22.018,25.686c5.189,10.041,8.223,21.048,9.29,32.178
	c0.542,5.572,0.548,11.172,0.16,16.712c-0.397,5.551-1.236,11.083-2.559,16.507c-2.63,10.852-7.279,21.235-13.628,30.4
	c-6.336,9.188-14.291,17.139-23.105,23.777c-8.826,6.646-18.485,12.032-28.5,16.427c-10.024,4.396-20.412,7.819-30.942,10.534
	c-21.085,5.406-42.698,8.053-64.282,9.158c-5.399,0.272-10.801,0.444-16.203,0.521c-5.41,0.075-10.775,0.085-16.163,0.088
	c-10.765-0.002-21.528-0.107-32.288-0.293c-43.04-0.755-86.025-2.738-128.968-5.229c-42.943-2.506-85.845-5.551-128.724-8.836
	c-85.758-6.602-171.432-14.115-257.098-21.72c85.726,6.879,171.461,13.668,257.255,19.543c42.897,2.923,85.81,5.604,128.743,7.745
	c42.932,2.126,85.892,3.742,128.849,4.134c10.738,0.095,21.477,0.108,32.213,0.021c5.362-0.054,10.746-0.097,16.084-0.234
	c5.348-0.133,10.689-0.363,16.023-0.687c21.321-1.321,42.583-4.173,63.12-9.677c10.255-2.76,20.317-6.202,29.941-10.549
	c9.619-4.342,18.804-9.607,27.094-15.994c8.282-6.377,15.636-13.913,21.426-22.502c5.799-8.575,9.979-18.191,12.308-28.26
	c1.17-5.037,1.895-10.177,2.209-15.353c0.306-5.187,0.242-10.372-0.313-15.493c-1.094-10.25-4.003-20.312-8.794-29.334
	c-4.769-9.012-11.481-16.972-19.766-22.629c-4.133-2.827-8.641-5.071-13.375-6.633c-4.733-1.572-9.691-2.454-14.696-2.684
	c-5.009-0.23-10.066,0.18-15.047,1.138c-5.039,0.984-10.024,2.343-14.781,4.147c-9.524,3.588-18.222,9.088-24.949,16.452
	c-6.758,7.332-11.457,16.441-13.96,26.185c-2.518,9.744-2.959,20.09-1.579,30.127l-0.062-0.363
	c1.479,6.899,3.734,13.602,6.789,19.908c3.048,6.313,6.894,12.225,11.395,17.619c9.005,10.819,20.558,19.487,33.147,26.301
	c12.613,6.831,26.26,11.902,40.246,15.819c14.003,3.908,28.381,6.658,42.882,8.625c14.506,1.961,29.149,3.13,43.826,3.717
	c14.679,0.582,29.396,0.577,44.101,0.087c14.7-0.5,29.406-1.465,44.002-2.978l5.458-0.603l2.712-0.329l1.343-0.171l0.659-0.089
	c0.128-0.017-0.497,0.081-0.152,0.024l0.168-0.033l0.337-0.064c3.593-0.682,7.174-1.41,10.743-2.188
	c7.138-1.555,14.228-3.302,21.245-5.27c14.036-3.93,27.797-8.731,41.063-14.563c13.26-5.832,26.025-12.704,37.941-20.755
	c11.91-8.045,22.972-17.274,32.714-27.685c9.744-10.399,18.157-21.985,24.784-34.49c6.63-12.496,11.465-25.908,14.193-39.72
	c2.733-13.803,3.362-28.006,1.708-41.89c-1.654-13.867-5.596-27.452-11.995-39.598c-3.198-6.063-7.011-11.751-11.425-16.824
	c-4.411-5.069-9.431-9.516-14.944-13.051c-0.225-0.144-0.439-0.297-0.643-0.46l-0.074-0.06
	c-10.803-8.667-24.469-13.856-38.589-15.625c-14.146-1.786-28.794-0.257-42.378,4.236c-13.595,4.48-26.13,11.986-36.224,21.935
	c-10.126,9.929-17.719,22.281-22.348,35.795c-2.329,6.753-3.948,13.792-4.921,20.96c-0.242,1.796-0.448,3.595-0.612,5.404
	c-0.084,0.911-0.153,1.805-0.218,2.682l-0.048,0.732c0.003-0.119-0.042,0.782,0.001-0.176l-0.001,0.342l-0.002,1.358
	c0.013,3.621,0.191,7.229,0.538,10.811c1.362,14.326,5.589,28.191,12.528,40.693c6.907,12.524,16.421,23.661,27.482,33.211
	c11.069,9.562,23.641,17.597,36.943,24.277c6.656,3.339,13.504,6.343,20.476,9.002c3.485,1.328,7.002,2.572,10.534,3.713
	c1.765,0.571,3.535,1.116,5.298,1.629l2.634,0.741l1.296,0.343l1.186,0.297l6.07,1.729c1.826,0.515,3.657,1.014,5.489,1.496
	c3.666,0.971,7.346,1.88,11.038,2.73c7.383,1.702,14.814,3.163,22.282,4.37c29.857,4.846,60.309,5.547,90.182,1.71
	c29.874-3.803,59.119-12.129,86.595-24.454c27.487-12.309,53.207-28.562,76.388-47.856c23.182-19.298,43.868-41.623,61.313-66.177
	c17.416-24.548,31.671-51.37,41.257-79.573c4.777-14.09,8.361-28.526,10.383-43.054c2.018-14.519,2.468-29.146,0.84-43.341
	c-1.62-14.184-5.357-27.921-11.528-40.273c-0.768-1.544-1.577-3.064-2.42-4.564l-1.406-2.458l-1.367-2.35
	c-1.847-3.121-3.791-6.191-5.823-9.197c-4.063-6.016-8.475-11.776-13.209-17.197c-9.463-10.834-20.252-20.313-32.147-27.426
	c-11.879-7.125-24.861-11.773-38.264-13.339c-13.402-1.605-27.18-0.14-40.595,3.759c-6.697,1.934-13.371,4.484-19.795,7.449
	l-0.665,0.308c0.028-0.013-0.533,0.248-0.019,0.011l-0.296,0.146l-1.177,0.591c-0.782,0.397-1.561,0.802-2.331,1.214
	c-1.543,0.826-3.064,1.677-4.56,2.56c-2.991,1.765-5.878,3.649-8.651,5.649c-5.542,4.004-10.601,8.494-15.04,13.455
	c-4.441,4.96-8.26,10.39-11.395,16.215c-6.285,11.648-9.755,24.904-10.792,38.719c-1.052,13.825,0.232,28.153,3.127,42.285
	c1.45,7.066,3.307,14.104,5.518,21.018c1.106,3.457,2.301,6.887,3.582,10.256c0.641,1.684,1.303,3.354,1.984,4.988l1.031,2.417
	l0.517,1.161l0.441,0.949l-0.776-1.428c8.826,14.299,19.197,27.439,31.135,38.879c11.924,11.46,25.405,21.191,40.037,29.104
	c14.629,7.926,30.373,14.053,46.715,18.732c16.347,4.684,33.283,7.949,50.476,10.252c17.2,2.298,34.665,3.637,52.242,4.379
	c17.582,0.74,35.282,0.88,53.041,0.676c8.879-0.101,17.774-0.292,26.682-0.545l13.371-0.427l13.323-0.512
	c17.572-0.776,35.156-2.159,52.711-4.045c35.115-3.775,70.107-9.521,104.839-16.715c34.732-7.204,69.212-15.858,103.344-25.733
	c34.126-9.884,67.925-20.971,101.166-33.338c16.611-6.191,33.087-12.706,49.288-19.641c4.042-1.734,8.089-3.502,12.072-5.285
	l12.839-5.31c8.082-3.396,16.107-6.941,24.071-10.625c31.865-14.738,62.769-31.714,92.669-50.395
	c29.903-18.688,58.809-39.081,86.756-60.781c55.896-43.431,107.975-91.976,156.793-143.64
	c48.809-51.699,94.395-106.561,137.051-163.609c21.319-28.533,41.903-57.628,61.68-87.232c9.887-14.802,19.57-29.734,29.007-44.792
	c4.716-7.529,9.371-15.09,13.94-22.679c2.285-3.792,4.549-7.593,6.779-11.396c2.223-3.792,4.452-7.633,6.527-11.335l0.007-0.011
	c5.439-9.708,17.719-13.167,27.427-7.728c9.707,5.44,13.167,17.72,7.727,27.427L3374.936,2385.89z"/>
<path d="M3629.127,2178.079l264.064,493.436l21.406-24.118l-188.6-602.495c0,0,189.703-239.771,227.792-304.884
	c12.446-25.9,64.052-130.401,19.103-168.563c-0.172-0.145-0.351-0.273-0.521-0.414c-0.186-0.126-0.358-0.261-0.544-0.387
	c-49.222-32.459-135.091,46.345-156.467,65.546c-51.842,54.801-228.89,304.063-228.89,304.063l-631.205-12.316l-17.154,27.305
	l547.642,115.307c0,0-81.661,128.655-121.405,196.296c-39.742,67.641-124.669,229.342-124.669,229.342l-196.901,15.555l2.753,12.483
	l176.604,47.187l89.217,133.403l12.752-0.854l-34.669-170.46c0,0,131.445-126.814,185.249-183.908
	C3528.488,2292.502,3629.127,2178.079,3629.127,2178.079z"/>
</svg>
